<svg width="64" height="15" viewBox="0 0 64 15" fill="none" xmlns="http://www.w3.org/2000/svg">
<path d="M17.032 7.668C19.108 7.116 20.932 6.264 22.264 5.436C23.524 4.644 24.724 3.612 25.552 2.604L26.356 3.36C25.324 4.428 24.064 5.436 22.66 6.312C21.34 7.128 19.432 8.004 17.5 8.604L17.032 7.668ZM22.072 5.928L23.104 5.616V11.1C23.104 11.544 23.128 12.144 23.188 12.372H22C22.036 12.144 22.072 11.544 22.072 11.1V5.928ZM36.28 3.864C36.592 4.308 37.144 5.196 37.42 5.772L36.712 6.084C36.424 5.46 35.992 4.704 35.596 4.164L36.28 3.864ZM37.828 3.252C38.14 3.672 38.716 4.572 39.004 5.124L38.308 5.46C37.984 4.836 37.552 4.104 37.156 3.576L37.828 3.252ZM28.636 8.844C28.936 8.58 29.164 8.364 29.476 8.052C30.052 7.476 31.096 6.144 31.852 5.244C32.488 4.488 33.052 4.356 33.868 5.136C34.6 5.82 35.632 6.9 36.328 7.644C37.144 8.508 38.344 9.804 39.268 10.8L38.44 11.676C37.588 10.644 36.532 9.408 35.752 8.532C35.056 7.752 33.952 6.564 33.448 6.06C32.98 5.616 32.752 5.652 32.344 6.156C31.768 6.852 30.76 8.172 30.22 8.832C29.968 9.144 29.716 9.516 29.524 9.756L28.636 8.844ZM42.724 3.216C43.564 3.78 45.112 5.028 45.772 5.688L45.028 6.456C44.416 5.832 42.928 4.536 42.028 3.948L42.724 3.216ZM41.692 11.256C43.78 10.944 45.34 10.212 46.48 9.504C48.34 8.34 49.792 6.564 50.488 5.076L51.064 6.108C50.248 7.596 48.856 9.228 47.044 10.368C45.832 11.124 44.32 11.868 42.316 12.24L41.692 11.256ZM56.032 10.944C56.032 10.272 56.032 4.968 56.032 3.972C56.032 3.624 56.008 3.096 55.948 2.712H57.124C57.076 3.084 57.04 3.6 57.04 3.972C57.04 5.832 57.052 10.38 57.052 10.944C57.052 11.328 57.076 11.976 57.124 12.372H55.96C56.02 11.988 56.032 11.388 56.032 10.944ZM56.824 5.868C58.408 6.324 60.832 7.248 62.164 7.896L61.744 8.916C60.376 8.184 58.132 7.332 56.824 6.924V5.868Z" fill="white"/>
<circle cx="6.5" cy="7.5" r="6.5" fill="#E40808"/>
</svg>
